<?xml version="1.0" encoding="UTF-8"?>
<svg id="Laag_1" xmlns="http://www.w3.org/2000/svg" version="1.1" viewBox="0 0 789.93 526.14">
  <!-- Generator: Adobe Illustrator 29.8.2, SVG Export Plug-In . SVG Version: 2.1.1 Build 3)  -->
  <defs>
    <style>
      .st0 {
        fill: #458dcb;
      }

      .st1 {
        fill: #bee4f4;
      }

      .st2 {
        fill: #256fb7;
      }

      .st3 {
        fill: #fff;
      }

      .st4 {
        fill: #174870;
      }
    </style>
  </defs>
  <path class="st3" d="M712.43,136.19c18.75,13.99,37.17,33.72,42.47,57.2,8.65,5,17.61,9.43,24.04,17.33,33.19,40.77-38.7,81.16-68.92,94.83-22.37,10.12-46.61,16.86-70.51,22.14-2.86.63-8.9.18-11.62,2.45-.79.66-6.83,15.59-8.6,18.7-12.73,22.32-37.3,44.23-61.89,52.27-12.86,4.2-40.06,9.12-31.35-13.14,5.08-13,11.28-24.84,16-38.59,1.9-5.52,6.9-27.44,10.71-29.82,3.3-2.06,27.7-.65,33.82-.93,49.84-2.28,143.83-24.45,174.5-67.06,8.16-11.34,7.44-11.55-5.32-16.04-43.59-15.34-107.24-17.56-149.75,2.45-42.6,20.05-56.45,59.88-82.02,95.82-33.9,47.65-88.02,94.86-150.83,89.86-8.76-.7-25.3-4.57-17.33-16.47,5.11-7.63,19.02-18.85,25.98-26.96,1.88-2.19,18.91-23.01,17.39-24.37l-160.94-.04c-19.36,1.68-38.45,5.04-56.11,13.38s-34.08,22.13-45.08,38.48c-.12,1.35,8.18,8.02,9.78,9.8,18.25,20.28,28.41,46.77,23.79,74.19-1.18,7.02-7.07,26.02-15.15,27.09-1.42.19-4.06-.04-5.1-1.03-2.53-2.43-4.99-13.18-7.19-17.2-7.25-13.27-24.45-20.08-33.59-35.89-.81-1.4-1.27-5.87-3.6-5.37-.63.13-6.98,7.94-8.76,9.48-9.59,8.29-21.92,11.76-32.98,17.48-14.18,7.35-25.28,15.92-36.12,27.57-3.06,3.29-6.65,11.16-12.29,10.56-1.14-.12-3.79-2.1-4.24-3.11-.4-.9-1.99-9.59-2.11-11.12-.76-9.52,3.81-29.91,6.93-39.46,11.3-34.6,39.27-64.21,72.12-79.25.48-4.52.65-9.03,1.36-13.52,12.98-82.02,68.33-160.85,130.57-213.54,16.18-13.7,51.54-34.23,58.91-52.76,7.99-20.08-2.52-44.53-15.04-60.52-4.47-5.7-20.32-20.07-22.27-24.91-3.35-8.29,2.49-13.19,9.83-15.65,38.43-12.88,105.46,21.51,137.28,43.1,25.46,17.27,35.2,31.12,69.19,30.98,22.43-.1,45.69-4.37,68.66-4.2,62.41.47,134.63,17.94,185.36,55.79ZM395.08,143.3h-57.91v57.07h57.91v-57.07ZM472.02,143.3h-57.08v57.07h57.08v-57.07ZM670.23,175.09c-32.48-28.52-81.72-30.51-115.54-3.19-.22,1.98,4,4.76,5.58,5.99,30.02,23.48,70.75,24.8,105.47,11.43,3.79-1.46,7.37-3.78,11.36-4.76,1.81-2.15-5.12-7.94-6.87-9.48ZM258.49,216.08v57.07h58.82v-57.07h-58.82ZM395.08,216.08h-57.91v57.07h57.91v-57.07ZM472.02,216.08h-57.08v57.07h57.08v-57.07ZM242.02,288.86h-55.43v50.45h55.43v-50.45ZM259.4,288.86v50.45h57.91v-50.45h-57.91ZM337.16,288.86v50.45h57.91v-50.45h-57.91ZM466.22,288.86h-51.29v49.21l1.24,1.24h12.41l37.64-50.45Z"/>
  <path d="M705.43,130.19c18.75,13.99,37.17,33.72,42.47,57.2,8.65,5,17.61,9.43,24.04,17.33,33.19,40.77-38.7,81.16-68.92,94.83-22.37,10.12-46.61,16.86-70.51,22.14-2.86.63-8.9.18-11.62,2.45-.79.66-6.83,15.59-8.6,18.7-12.73,22.32-37.3,44.23-61.89,52.27-12.86,4.2-40.06,9.12-31.35-13.14,5.08-13,11.28-24.84,16-38.59,1.9-5.52,6.9-27.44,10.71-29.82,3.3-2.06,27.7-.65,33.82-.93,49.84-2.28,143.83-24.45,174.5-67.06,8.16-11.34,7.44-11.55-5.32-16.04-43.59-15.34-107.24-17.56-149.75,2.45-42.6,20.05-56.45,59.88-82.02,95.82-33.9,47.65-88.02,94.86-150.83,89.86-8.76-.7-25.3-4.57-17.33-16.47,5.11-7.63,19.02-18.85,25.98-26.96,1.88-2.19,18.91-23.01,17.39-24.37l-160.94-.04c-19.36,1.68-38.45,5.04-56.11,13.38s-34.08,22.13-45.08,38.48c-.12,1.35,8.18,8.02,9.78,9.8,18.25,20.28,28.41,46.77,23.79,74.19-1.18,7.02-7.07,26.02-15.15,27.09-1.42.19-4.06-.04-5.1-1.03-2.53-2.43-4.99-13.18-7.19-17.2-7.25-13.27-24.45-20.08-33.59-35.89-.81-1.4-1.27-5.87-3.6-5.37-.63.13-6.98,7.94-8.76,9.48-9.59,8.29-21.92,11.76-32.98,17.48-14.18,7.35-25.28,15.92-36.12,27.57-3.06,3.29-6.65,11.16-12.29,10.56-1.14-.12-3.79-2.1-4.24-3.11-.4-.9-1.99-9.59-2.11-11.12-.76-9.52,3.81-29.91,6.93-39.46,11.3-34.6,39.27-64.21,72.12-79.25.48-4.52.65-9.03,1.36-13.52,12.98-82.02,68.33-160.85,130.57-213.54,16.18-13.7,51.54-34.23,58.91-52.76,7.99-20.08-2.52-44.53-15.04-60.52-4.47-5.7-20.32-20.07-22.27-24.91-3.35-8.29,2.49-13.19,9.83-15.65,38.43-12.88,105.46,21.51,137.28,43.1,25.46,17.27,35.2,31.12,69.19,30.98,22.43-.1,45.69-4.37,68.66-4.2,62.41.47,134.63,17.94,185.36,55.79ZM388.08,137.3h-57.91v57.07h57.91v-57.07ZM465.02,137.3h-57.08v57.07h57.08v-57.07ZM663.23,169.09c-32.48-28.52-81.72-30.51-115.54-3.19-.22,1.98,4,4.76,5.58,5.99,30.02,23.48,70.75,24.8,105.47,11.43,3.79-1.46,7.37-3.78,11.36-4.76,1.81-2.15-5.12-7.94-6.87-9.48ZM251.49,210.08v57.07h58.82v-57.07h-58.82ZM388.08,210.08h-57.91v57.07h57.91v-57.07ZM465.02,210.08h-57.08v57.07h57.08v-57.07ZM235.02,282.86h-55.43v50.45h55.43v-50.45ZM252.4,282.86v50.45h57.91v-50.45h-57.91ZM330.16,282.86v50.45h57.91v-50.45h-57.91ZM459.22,282.86h-51.29v49.21l1.24,1.24h12.41l37.64-50.45Z"/>
  <path class="st1" d="M663.23,169.09c1.75,1.54,8.68,7.33,6.87,9.48-3.99.98-7.57,3.3-11.36,4.76-34.73,13.36-75.46,12.05-105.47-11.43-1.57-1.23-5.79-4.01-5.58-5.99,33.82-27.32,83.06-25.33,115.54,3.19Z"/>
  <rect class="st4" x="251.49" y="210.08" width="58.82" height="57.07"/>
  <rect class="st4" x="330.16" y="137.3" width="57.91" height="57.07"/>
  <rect class="st2" x="330.16" y="210.08" width="57.91" height="57.07"/>
  <rect class="st2" x="407.93" y="137.3" width="57.08" height="57.07"/>
  <rect class="st0" x="407.93" y="210.08" width="57.08" height="57.07"/>
  <rect class="st2" x="252.4" y="282.86" width="57.91" height="50.45"/>
  <rect class="st0" x="330.16" y="282.86" width="57.91" height="50.45"/>
  <rect class="st4" x="179.59" y="282.86" width="55.43" height="50.45"/>
  <polygon class="st1" points="459.22 282.86 421.58 333.32 409.17 333.32 407.93 332.08 407.93 282.86 459.22 282.86"/>
</svg>